<svg id="Calque_1" data-name="Calque 1" xmlns="http://www.w3.org/2000/svg" xmlns:xlink="http://www.w3.org/1999/xlink" viewBox="0 0 57.78 33.3"><defs><style>.cls-1{fill:#008b38;}.cls-1,.cls-2,.cls-3,.cls-4,.cls-5{stroke:#1d1d1b;stroke-miterlimit:10;}.cls-2{fill:#4977bb;}.cls-3{fill:#fff;}.cls-4{fill:url(#Dégradé_sans_nom_3);}.cls-5{fill:url(#Dégradé_sans_nom_3-2);}</style><linearGradient id="Dégradé_sans_nom_3" x1="162.75" y1="658.3" x2="189.43" y2="658.3" gradientUnits="userSpaceOnUse"><stop offset="0" stop-color="#fff"/><stop offset="0" stop-color="#f5b92b"/></linearGradient><linearGradient id="Dégradé_sans_nom_3-2" x1="151.19" y1="658.3" x2="177.87" y2="658.3" xlink:href="#Dégradé_sans_nom_3"/></defs><title>logo</title><path class="cls-1" d="M175.73,650.55c-.24-.46-.42-.95-.62-1.42,0,.11-.24-.54-.36-.83l-.33-.66c-.19-.39-.4-.78-.6-1.17-.36-.66-.73-1.3-1.11-1.94l-16.35,29.93H165l12.21-21.83A10,10,0,0,1,175.73,650.55Z" transform="translate(-132.49 -641.65)"/><path class="cls-2" d="M153.41,674.46l18.08-32.31h-9l-17.64,32.31Z" transform="translate(-132.49 -641.65)"/><path class="cls-1" d="M141.94,674.46,160,642.15h-9l-17.64,32.31Z" transform="translate(-132.49 -641.65)"/><path class="cls-3" d="M170.84,674.69" transform="translate(-132.49 -641.65)"/><path class="cls-4" d="M180.82,674.46l-18.07-32.31h9l17.65,32.31Z" transform="translate(-132.49 -641.65)"/><path class="cls-5" d="M169.26,674.46l-18.07-32.31h9l17.64,32.31Z" transform="translate(-132.49 -641.65)"/><path class="cls-3" d="M163.4,674.69" transform="translate(-132.49 -641.65)"/><path class="cls-3" d="M142.64,633.79" transform="translate(-132.49 -641.65)"/><line class="cls-3" x1="40.4" y1="2.54" x2="44.85" y2="10.68"/></svg>